<svg width="88" height="88" viewBox="0 0 88 88" fill="none" xmlns="http://www.w3.org/2000/svg">
<path d="M33.381 41.6159L33.381 41.616L33.3872 41.622L43.3105 51.372L44.0567 52.1052L44.7406 51.3136L71.6759 20.1344C72.2727 19.522 73.0812 19.1606 73.9361 19.1247C74.7991 19.0885 75.6428 19.3868 76.2912 19.9574C76.9397 20.528 77.3428 21.3269 77.4166 22.1875C77.4899 23.0419 77.2329 23.8916 76.6991 24.5621L46.3806 59.2118C46.3804 59.212 46.3803 59.2122 46.3801 59.2123C46.0774 59.5572 45.7071 59.8363 45.2921 60.0322C44.8808 60.2265 44.4343 60.3349 43.9797 60.3511C43.5429 60.352 43.11 60.2674 42.7055 60.1022C42.2977 59.9356 41.9267 59.6903 41.6137 59.3802C41.6133 59.3798 41.6128 59.3793 41.6124 59.3789L28.6152 46.3817C27.9832 45.7497 27.6282 44.8926 27.6282 43.9988C27.6282 43.1051 27.9832 42.2479 28.6152 41.6159C29.2472 40.9839 30.1044 40.6289 30.9981 40.6289C31.8919 40.6289 32.749 40.9839 33.381 41.6159Z" fill="#4CC15F" stroke="white" stroke-width="1.96226"/>
<path d="M43.9983 79.6491H43.9988C53.4532 79.6491 62.5203 75.8934 69.2056 69.2081C75.8908 62.5229 79.6466 53.4557 79.6466 44.0013C79.6466 43.1122 79.9997 42.2596 80.6284 41.6309C81.2571 41.0023 82.1097 40.6491 82.9988 40.6491C83.8878 40.6491 84.7405 41.0023 85.3691 41.6309C85.9978 42.2596 86.351 43.1122 86.351 44.0013C86.351 55.2338 81.8889 66.0063 73.9463 73.9488C66.0043 81.8909 55.2327 86.3529 44.0011 86.3535C32.8797 86.3276 22.2216 81.8968 14.3594 74.031L14.3573 74.029C8.42467 68.1283 4.37284 60.6025 2.71316 52.4013C1.05348 44.2 1.86033 35.6909 5.03188 27.9478C8.20343 20.2047 13.5976 13.5746 20.5335 8.89408C27.4682 4.21446 35.6335 1.69348 43.9993 1.64911C47.3817 1.66348 50.7515 2.06178 54.0441 2.83636L54.0707 2.84262L54.0976 2.84738C54.5483 2.92727 54.978 3.09863 55.36 3.35092C55.742 3.6032 56.0683 3.93106 56.3187 4.31427C56.5691 4.69749 56.7384 5.12794 56.8162 5.57908C56.8939 6.03024 56.8783 6.49253 56.7706 6.93745C56.6628 7.38237 56.465 7.8005 56.1894 8.16606C55.9138 8.53162 55.5663 8.83686 55.1682 9.06296C54.7702 9.28906 54.33 9.43124 53.8749 9.48071C53.4198 9.53019 52.9594 9.48593 52.522 9.35065L52.4865 9.33967L52.4503 9.33141C49.6791 8.69922 46.8472 8.37132 44.0049 8.35352L44.0019 8.35351C39.3018 8.3384 34.6458 9.2609 30.3065 11.067C25.9678 12.8729 22.0328 15.526 18.7317 18.8709C13.7691 23.8635 10.3959 30.2137 9.03714 37.1208C7.67832 44.0285 8.39525 51.1838 11.0976 57.6846C13.7998 64.1853 18.3665 69.7404 24.2216 73.6493C30.0768 77.5582 36.9583 79.6459 43.9983 79.6491Z" fill="#4CC15F" stroke="white" stroke-width="1.96226"/>
</svg>
