<svg width="252" height="198" viewBox="0 0 252 198" fill="none" xmlns="http://www.w3.org/2000/svg">
<circle cx="126" cy="90" r="90" fill="#EBEEF8"/>
<g filter="url(#filter0_dd_1032_1819)">
<path d="M192.767 81.017C192.838 80.0159 192.88 79.0151 192.88 78C192.88 50.9799 170.767 29 143.6 29C123.987 29 106.323 40.6269 98.5158 58.2951C95.9954 57.4341 93.4118 57 90.8 57C78.2194 57 67.8072 66.422 66.3642 78.8189C50.0031 82.0182 38 96.2209 38 113C38 132.299 53.7908 148 73.2 148H178.8C198.202 148 214 132.299 214 113C214 99.0561 205.573 86.5261 192.767 81.017Z" fill="#F2F4F9"/>
</g>
<path d="M102.646 121V121C114.525 107.352 135.48 106.627 148.274 119.421L149.853 121" stroke="#999FAE" stroke-width="6" stroke-linecap="round"/>
<path d="M103.082 78L113.832 88.75" stroke="#999FAE" stroke-width="4" stroke-linecap="round"/>
<path d="M113.832 78L103.082 88.75" stroke="#999FAE" stroke-width="4" stroke-linecap="round"/>
<path d="M138.199 78L148.949 88.75" stroke="#999FAE" stroke-width="4" stroke-linecap="round"/>
<path d="M148.949 78L138.199 88.75" stroke="#999FAE" stroke-width="4" stroke-linecap="round"/>
<g filter="url(#filter1_d_1032_1819)">
<path d="M207 55C207 55 180.833 71.3333 176 72C180 76.8 191.333 83.6667 196.5 86.5C196.5 86.5 217.5 80 226 66C226 66 212.167 58.3333 207 55Z" fill="#F3F6FA"/>
</g>
<g filter="url(#filter2_d_1032_1819)">
<path d="M32 78C32 78 58.1667 94.3333 63 95C59 99.8 47.6667 106.667 42.5 109.5C42.5 109.5 21.5 103 13 89C13 89 26.8333 81.3333 32 78Z" fill="#F3F6FA"/>
</g>
<defs>
<filter id="filter0_dd_1032_1819" x="0" y="3" width="252" height="195" filterUnits="userSpaceOnUse" color-interpolation-filters="sRGB">
<feFlood flood-opacity="0" result="BackgroundImageFix"/>
<feColorMatrix in="SourceAlpha" type="matrix" values="0 0 0 0 0 0 0 0 0 0 0 0 0 0 0 0 0 0 127 0" result="hardAlpha"/>
<feMorphology radius="4" operator="erode" in="SourceAlpha" result="effect1_dropShadow_1032_1819"/>
<feOffset dy="12"/>
<feGaussianBlur stdDeviation="21"/>
<feColorMatrix type="matrix" values="0 0 0 0 0.0941176 0 0 0 0 0.152941 0 0 0 0 0.294118 0 0 0 0.12 0"/>
<feBlend mode="normal" in2="BackgroundImageFix" result="effect1_dropShadow_1032_1819"/>
<feColorMatrix in="SourceAlpha" type="matrix" values="0 0 0 0 0 0 0 0 0 0 0 0 0 0 0 0 0 0 127 0" result="hardAlpha"/>
<feMorphology radius="6" operator="erode" in="SourceAlpha" result="effect2_dropShadow_1032_1819"/>
<feOffset dy="8"/>
<feGaussianBlur stdDeviation="9"/>
<feColorMatrix type="matrix" values="0 0 0 0 0.0941176 0 0 0 0 0.152941 0 0 0 0 0.294118 0 0 0 0.12 0"/>
<feBlend mode="normal" in2="effect1_dropShadow_1032_1819" result="effect2_dropShadow_1032_1819"/>
<feBlend mode="normal" in="SourceGraphic" in2="effect2_dropShadow_1032_1819" result="shape"/>
</filter>
<filter id="filter1_d_1032_1819" x="175" y="55" width="52" height="34.5" filterUnits="userSpaceOnUse" color-interpolation-filters="sRGB">
<feFlood flood-opacity="0" result="BackgroundImageFix"/>
<feColorMatrix in="SourceAlpha" type="matrix" values="0 0 0 0 0 0 0 0 0 0 0 0 0 0 0 0 0 0 127 0" result="hardAlpha"/>
<feMorphology radius="2" operator="erode" in="SourceAlpha" result="effect1_dropShadow_1032_1819"/>
<feOffset dy="2"/>
<feGaussianBlur stdDeviation="1.5"/>
<feColorMatrix type="matrix" values="0 0 0 0 0.0941176 0 0 0 0 0.152941 0 0 0 0 0.294118 0 0 0 0.06 0"/>
<feBlend mode="normal" in2="BackgroundImageFix" result="effect1_dropShadow_1032_1819"/>
<feBlend mode="normal" in="SourceGraphic" in2="effect1_dropShadow_1032_1819" result="shape"/>
</filter>
<filter id="filter2_d_1032_1819" x="12" y="78" width="52" height="34.5" filterUnits="userSpaceOnUse" color-interpolation-filters="sRGB">
<feFlood flood-opacity="0" result="BackgroundImageFix"/>
<feColorMatrix in="SourceAlpha" type="matrix" values="0 0 0 0 0 0 0 0 0 0 0 0 0 0 0 0 0 0 127 0" result="hardAlpha"/>
<feMorphology radius="2" operator="erode" in="SourceAlpha" result="effect1_dropShadow_1032_1819"/>
<feOffset dy="2"/>
<feGaussianBlur stdDeviation="1.5"/>
<feColorMatrix type="matrix" values="0 0 0 0 0.0941176 0 0 0 0 0.152941 0 0 0 0 0.294118 0 0 0 0.06 0"/>
<feBlend mode="normal" in2="BackgroundImageFix" result="effect1_dropShadow_1032_1819"/>
<feBlend mode="normal" in="SourceGraphic" in2="effect1_dropShadow_1032_1819" result="shape"/>
</filter>
</defs>
</svg>
