<svg width="17" height="17" viewBox="0 0 17 17" fill="none" xmlns="http://www.w3.org/2000/svg">
<path d="M4 4C4 1.79086 5.79086 0 8 0C10.2091 0 12 1.79086 12 4C12 5.20196 11.4699 6.2801 10.6306 7.01334C10.5933 7.04375 10.5564 7.07484 10.5199 7.10663C9.83208 7.66523 8.95514 8 8 8C5.79086 8 4 6.20914 4 4ZM9.22616 9L3.00873 9C1.90315 9 1 9.88687 1 11C1 12.6912 1.83281 13.9663 3.13499 14.7966C3.94635 15.3139 4.93649 15.6585 6.02431 15.8417C5.91903 15.0892 6.15575 14.298 6.73445 13.7193L9.05175 11.402C8.89339 10.6049 8.95131 9.77267 9.22616 9ZM13.8916 7.02374C14.2582 7.06644 14.3631 7.50482 14.1021 7.76585L13.127 8.74098C12.5382 9.32972 12.5382 10.2843 13.127 10.873C13.7157 11.4618 14.6703 11.4618 15.259 10.873L16.2341 9.89788C16.4952 9.63685 16.9336 9.74177 16.9763 10.1084C17.0964 11.1397 16.7608 12.2139 15.9697 13.005C14.9775 13.9973 13.5399 14.2728 12.3003 13.8317L9.57359 16.5584C8.98484 17.1472 8.0303 17.1472 7.44156 16.5584C6.85281 15.9697 6.85281 15.0152 7.44156 14.4264L10.1683 11.6997C9.72716 10.4601 10.0027 9.02255 10.995 8.0303C11.7861 7.23917 12.8603 6.90365 13.8916 7.02374Z" fill="white"/>
</svg>
